<?xml version="1.0" encoding="UTF-8"?>
<svg version="1.1" xmlns="http://www.w3.org/2000/svg" width="120" height="106">
<path d="M0 0 C4.2229305 4.57484138 6.07929422 8.93037014 6.7019043 15.09057617 C6.80508469 16.07897995 6.90826508 17.06738373 7.01457214 18.08573914 C7.11675552 19.14412491 7.2189389 20.20251068 7.32421875 21.29296875 C7.49000175 22.94477898 7.49000175 22.94477898 7.65913391 24.62995911 C7.89053254 26.95874579 8.11807716 29.28791819 8.34204102 31.61743164 C8.68468984 35.15845904 9.04564831 38.69729034 9.40820312 42.23632812 C9.6313259 44.5050987 9.85336585 46.77397609 10.07421875 49.04296875 C10.23660286 50.61536568 10.23660286 50.61536568 10.40226746 52.2195282 C11.10366692 59.73437177 11.81757983 67.4321581 8.3125 74.3125 C-1.52937127 85.75035039 -16.6998404 84.48628409 -30.94848633 85.85986328 C-33.69352533 86.12558325 -36.43755894 86.40037025 -39.18164062 86.67578125 C-40.95827997 86.84950493 -42.73497108 87.02270027 -44.51171875 87.1953125 C-45.31614914 87.27653351 -46.12057953 87.35775452 -46.9493866 87.44143677 C-64.82095854 89.13245503 -64.82095854 89.13245503 -72 84 C-78.96568097 77.48860257 -79.20564693 68.68030334 -80.0703125 59.64453125 C-80.15626678 58.78043137 -80.24222107 57.91633148 -80.33078003 57.02604675 C-80.50990858 55.20863449 -80.68623289 53.39094382 -80.85986328 51.57299805 C-81.12273381 48.83609472 -81.39866338 46.10072734 -81.67578125 43.36523438 C-84.64588031 13.30643335 -84.64588031 13.30643335 -79 6 C-72.69759447 -0.47274081 -63.76953564 -0.51369067 -55.2578125 -1.32421875 C-54.13486786 -1.43474075 -53.01192322 -1.54526276 -51.85494995 -1.65913391 C-49.48679242 -1.89009419 -47.11830183 -2.11766154 -44.74951172 -2.34204102 C-41.14296454 -2.68578777 -37.53836361 -3.04634858 -33.93359375 -3.40820312 C-31.62509874 -3.63123272 -29.31650766 -3.85327066 -27.0078125 -4.07421875 C-25.93878693 -4.18247482 -24.86976135 -4.2907309 -23.76834106 -4.40226746 C-7.09243938 -5.93785623 -7.09243938 -5.93785623 0 0 Z M-41.25756836 12.65405273 C-44.08706318 12.93998219 -46.91742242 13.21573627 -49.74804688 13.49023438 C-51.55214193 13.66867938 -53.35618068 13.84769477 -55.16015625 14.02734375 C-56.00385269 14.10967758 -56.84754913 14.19201141 -57.71681213 14.27684021 C-60.96140152 14.60884441 -63.89529793 14.96509931 -67 16 C-71.01224762 24.02449524 -66.5889519 40.12941799 -65.75671387 49.0897522 C-65.62785147 50.48162401 -65.50112158 51.873695 -65.37658691 53.26596069 C-65.1972969 55.25481448 -65.00700552 57.24266689 -64.81640625 59.23046875 C-64.70756104 60.38957764 -64.59871582 61.54868652 -64.48657227 62.74291992 C-63.98740784 66.08429102 -63.39947315 68.9192213 -62 72 C-58.90157771 73.20795309 -56.16522564 72.99817199 -52.89599609 72.6862793 C-51.88169525 72.59255539 -50.86739441 72.49883148 -49.82235718 72.40226746 C-48.73371368 72.29401138 -47.64507019 72.18575531 -46.5234375 72.07421875 C-45.40184235 71.96656693 -44.28024719 71.8589151 -43.12466431 71.7480011 C-40.75562258 71.51849265 -38.38692316 71.28542708 -36.01855469 71.04907227 C-32.38319337 70.68831308 -28.74649502 70.3444699 -25.109375 70.00195312 C-22.80979561 69.77706412 -20.51031265 69.55118642 -18.2109375 69.32421875 C-16.57189957 69.17094368 -16.57189957 69.17094368 -14.89974976 69.01457214 C-13.89175323 68.91139175 -12.88375671 68.80821136 -11.84521484 68.7019043 C-10.95571136 68.61450485 -10.06620789 68.52710541 -9.14974976 68.4370575 C-6.79657923 68.1646152 -6.79657923 68.1646152 -5 66 C-3.76152655 56.15008502 -5.62684673 45.52422247 -6.59912109 35.6875 C-6.87771898 32.84728084 -7.14040659 30.00586116 -7.40234375 27.1640625 C-7.57717065 25.35667827 -7.7529176 23.54938274 -7.9296875 21.7421875 C-8.00686005 20.89332977 -8.08403259 20.04447205 -8.1635437 19.16989136 C-8.4759742 14.61558651 -8.4759742 14.61558651 -11 11 C-20.8379054 9.75395 -31.43734312 11.6596761 -41.25756836 12.65405273 Z " fill="#000000" transform="translate(94,10)"/>
</svg>
