<?xml version="1.0" encoding="UTF-8"?>
<svg version="1.1" xmlns="http://www.w3.org/2000/svg" width="270" height="239">
<path d="M0 0 C1.06075461 -0.00764185 1.06075461 -0.00764185 2.14293861 -0.01543808 C12.81281221 0.09329873 21.92391029 4.91076026 29.67431641 12.02050781 C37.0162672 19.75803785 40.30969127 29.01652783 41.25634766 39.48144531 C41.36574173 40.51763504 41.4751358 41.55382477 41.58784485 42.62141418 C41.91297319 45.75063929 42.21889921 48.88123149 42.51953888 52.01288605 C42.84290669 55.33214386 43.18381815 58.6495626 43.523283 61.96720695 C44.65249859 73.00619239 45.73784826 84.04917832 46.80834961 95.09399414 C47.3229145 100.40050858 47.84637553 105.70610643 48.37189007 111.01154613 C48.78056305 115.15239043 49.18310197 119.29381492 49.58399391 123.43541908 C49.77435086 125.39178212 49.96687271 127.34793594 50.16174889 129.30385399 C53.85151936 166.42356013 53.85151936 166.42356013 41.28369141 183.18066406 C27.18151192 199.13464489 2.54728438 197.73942918 -16.91552734 199.62597656 C-19.18746579 199.8473062 -21.45940282 200.06865047 -23.7313385 200.29000854 C-28.47051452 200.75091706 -33.20992089 201.20937516 -37.94946289 201.66650391 C-43.98253011 202.24891579 -50.01461192 202.84094821 -56.04651546 203.43527412 C-60.73127388 203.89516411 -65.416686 204.34810673 -70.10229683 204.79922104 C-72.32498227 205.01436699 -74.54742791 205.23200724 -76.76960564 205.45233536 C-118.1513677 209.54610983 -118.1513677 209.54610983 -133.26318359 198.24316406 C-149.46526918 183.68682448 -148.70366517 161.92264151 -150.64599609 141.78613281 C-150.86724063 139.5113276 -151.08858646 137.23653225 -151.31002808 134.96174622 C-151.77150552 130.21067044 -152.22993255 125.45931142 -152.68652344 120.70776367 C-153.2682855 114.6588804 -153.86045116 108.61106558 -154.45529366 102.56345654 C-154.9152575 97.8701217 -155.36819145 93.17612705 -155.81924057 88.48192787 C-156.03444401 86.25366644 -156.25208709 84.02563906 -156.47235489 81.79787254 C-160.57895928 40.15925876 -160.57895928 40.15925876 -148.52099609 24.71972656 C-139.00862675 14.28574358 -126.36536212 10.99304954 -112.72167969 9.77929688 C-111.63693359 9.67142349 -110.5521875 9.56355011 -109.43457031 9.45240784 C-105.88643746 9.10323084 -102.33677116 8.7742668 -98.78662109 8.44628906 C-96.29089034 8.20636702 -93.79525568 7.96544363 -91.29971313 7.72357178 C-85.41517311 7.15666162 -79.5294601 6.60345699 -73.64309275 6.05587935 C-67.6642733 5.49839966 -61.68766191 4.91943443 -55.71106529 4.33858109 C-50.55883177 3.83943968 -45.4057929 3.34906552 -40.25246048 2.86141205 C-37.8053865 2.62919143 -35.35851782 2.39479559 -32.91187668 2.15805817 C-21.95186228 1.10307897 -11.01856271 0.05209637 0 0 Z M-32.93896484 35.39550781 C-35.23670636 35.61776919 -37.53449264 35.83956833 -39.83232117 36.06092834 C-44.62773494 36.52404773 -49.42276881 36.99085932 -54.2175293 37.46069336 C-60.35462282 38.06202917 -66.49231384 38.65696993 -72.63026142 39.24951839 C-78.50420709 39.81684231 -84.37784828 40.3872884 -90.25146484 40.95800781 C-91.36620996 41.06607191 -92.48095509 41.17413601 -93.62948036 41.28547478 C-96.79051084 41.59249059 -99.95131661 41.90171976 -103.11206055 42.21166992 C-104.50474655 42.34653809 -104.50474655 42.34653809 -105.92556763 42.48413086 C-114.99993468 42.9557389 -114.99993468 42.9557389 -123.20068359 46.18066406 C-127.54594835 52.63272385 -125.09875592 62.43856862 -124.37695312 69.90600586 C-124.28263 70.92034698 -124.18830688 71.93468811 -124.09112549 72.97976685 C-123.7808939 76.30111137 -123.4637734 79.62175237 -123.14599609 82.94238281 C-122.9263646 85.26542617 -122.70695696 87.58849069 -122.48776245 89.91157532 C-122.02855177 94.76598434 -121.56575999 99.62003589 -121.10058594 104.47387695 C-120.50555894 110.68701849 -119.92084267 116.90108149 -119.33896065 123.11546612 C-118.88890994 127.90719319 -118.43272296 132.69832129 -117.97475815 137.48929787 C-117.75662833 139.78037981 -117.54055641 142.07165866 -117.32660294 144.36313438 C-117.02680252 147.5655672 -116.71857177 150.76708234 -116.40820312 153.96850586 C-116.32188629 154.90945602 -116.23556946 155.85040619 -116.14663696 156.81987 C-115.63249556 165.61444942 -115.63249556 165.61444942 -111.47654915 172.91831684 C-108.92788792 174.44386093 -107.61189503 174.58626402 -104.67089844 174.48605347 C-103.78875671 174.45853878 -102.90661499 174.43102409 -101.9977417 174.40267563 C-97.56726349 174.14423807 -93.15649798 173.79037755 -88.73974609 173.35693359 C-87.73997742 173.26261047 -86.74020874 173.16828735 -85.71014404 173.07110596 C-82.43568133 172.76084309 -79.16193248 172.44367634 -75.88818359 172.12597656 C-73.59475211 171.90629846 -71.30129462 171.68689168 -69.0078125 171.46774292 C-64.21307274 171.00847001 -59.41868302 170.54573451 -54.62451172 170.08056641 C-48.49902338 169.48653034 -42.3727213 168.90141752 -36.24612427 168.31894112 C-31.51355289 167.86794993 -26.78146266 167.41206341 -22.04949951 166.95473862 C-19.79155157 166.73713121 -17.53345531 166.5210568 -15.27520752 166.3065834 C-12.11184024 166.00543422 -8.94918495 165.69764171 -5.78662109 165.38818359 C-4.8658075 165.30186676 -3.9449939 165.21554993 -2.99627686 165.12661743 C-0.41223564 164.86982644 2.16105368 164.57248128 4.73681641 164.24316406 C5.63922058 164.13072231 6.54162476 164.01828056 7.47137451 163.90243149 C11.56492027 163.26181896 14.10555345 162.75369984 17.36950684 160.1139679 C19.15143523 156.37263018 19.01649782 153.32184829 18.61376953 149.31030273 C18.55219917 148.52573543 18.49062881 147.74116812 18.42719269 146.93282604 C18.21935995 144.36716463 17.9794323 141.80575153 17.73681641 139.24316406 C17.58651953 137.51316923 17.43735878 135.78307534 17.28930664 134.05288696 C16.7964429 128.42143864 16.25244403 122.79536238 15.70556641 117.16894531 C15.50734151 115.10396345 15.30938951 113.03895537 15.11169434 110.97392273 C14.70037625 106.68527924 14.28669809 102.39687278 13.87109375 98.10864258 C13.33960218 92.62400601 12.81276355 87.13893494 12.28749847 81.65369892 C11.88048279 77.40617536 11.47173532 73.15881994 11.06239319 68.91152 C10.86746804 66.88822165 10.67291346 64.86488756 10.47874451 62.84151649 C10.20769687 60.02121617 9.93448645 57.20113372 9.66064453 54.38110352 C9.58165421 53.55557983 9.50266388 52.73005615 9.42127991 51.8795166 C8.92274253 43.21615492 8.92274253 43.21615492 5.92431641 35.30566406 C-3.48505581 29.21724675 -22.30996247 34.34877076 -32.93896484 35.39550781 Z " fill="#0D9394" transform="translate(183.26318359375,12.7568359375)"/>
</svg>
